<svg xmlns="http://www.w3.org/2000/svg" version="1.1" xmlns:xlink="http://www.w3.org/1999/xlink" xmlns:svgjs="http://svgjs.dev/svgjs" width="100%" height="100%" viewBox="0 0 1000 600"><rect width="1000" height="600" x="0" y="0" fill="#212121"/><g><circle r="166.66666666666666" cx="594.2595621744791" cy="386.575463627855" fill="#a04ef6" transform="matrix(0.6323142206480232,0,0,0.6323142206480232,-53.45160764744557,55.56286227701153)"/><path d="M332.9504072987535 461.57547826394443Q318.4267374486392 461.57547826394443 306.94222587701967 456.4322873311072Q295.4869369811548 451.2890963982699 288.97028028784405 442.11317621127625Q282.45362359453316 432.9664787000372 282.21984218849514 420.9851816405868L282.21984218849514 420.9851816405868L302.64649254107036 420.9851816405868Q303.6985088682416 431.30078618201605 311.15029118570465 438.3434510389125Q318.6312961789225 445.386115895809 332.9504072987535 445.386115895809L332.9504072987535 445.386115895809Q346.62661955197984 445.386115895809 354.51674200576423 438.5480097691958Q362.4068644595487 431.7099036425827 362.4068644595487 420.9851816405868L362.4068644595487 420.9851816405868Q362.4068644595487 412.5690510232168 357.7604590145423 407.3089693873605Q353.1432762452906 402.0488877515042 346.1882794156585 399.30195623055704Q339.26250526178103 396.5842473853646 327.45654425685916 393.42819840385084L327.45654425685916 393.42819840385084Q312.9620970824996 389.6292505557324 304.22451703182725 385.830302707614Q295.4869369811548 382.06057753525033 289.29172972114634 373.9658963511826Q283.06729978538306 365.84199249136014 283.06729978538306 352.16578023813383L283.06729978538306 352.16578023813383Q283.06729978538306 340.18448317868337 289.17483901812733 330.9208949644254Q295.2823782508716 321.6573067501674 306.32854968616977 316.63100652034916Q317.3747211214679 311.57548361477615 331.6646095655442 311.57548361477615L331.6646095655442 311.57548361477615Q352.2958186484027 311.57548361477615 365.4460227380434 321.89108815620546Q378.59622682768406 332.17747002187997 380.29114202146 349.2435126626581L380.29114202146 349.2435126626581L359.2508154780349 349.2435126626581Q358.19879915086364 340.82738204528806 350.39634472434346 334.39839337924144Q342.6231129735781 327.96940471319493 329.7943583172397 327.96940471319493L329.7943583172397 327.96940471319493Q317.78383858203455 327.96940471319493 310.21516556155245 334.19383464895816Q302.64649254107036 340.3890419089667 302.64649254107036 351.55210404728393L302.64649254107036 351.55210404728393Q302.64649254107036 359.5298945283326 307.17600728305774 364.5854174339056Q311.6762993492903 369.64094033947856 318.3098467456202 372.2709811574067Q324.94339414195 374.90102197533486 336.9246912014005 378.2616296871319L336.9246912014005 378.2616296871319Q351.4483610515147 382.2651362655336 360.30283180520615 386.1517521409163Q369.1280798831428 390.03836801629905 375.44017784617034 398.1622718761215Q381.75227580919784 406.25695306018923 381.75227580919784 420.1377240436989L381.75227580919784 420.1377240436989Q381.75227580919784 430.8624460456947 376.083076712775 440.330592990236Q370.3846549405974 449.79873993477736 359.2508154780349 455.70172043723824Q348.08775333971766 461.57547826394443 332.9504072987535 461.57547826394443L332.9504072987535 461.57547826394443ZM507.9942350697486 356.3738455468188Q507.9942350697486 374.6964632450515 495.48692984671254 386.794651007521Q482.9504019479218 398.8928387699904 457.29289263524504 398.8928387699904L457.29289263524504 398.8928387699904L429.0930105319044 398.8928387699904L429.0930105319044 460.1143444762066L409.9521579125385 460.1143444762066L409.9521579125385 313.4749575388354L457.29289263524504 313.4749575388354Q482.1029443510338 313.4749575388354 495.0485897103912 325.4562545982858Q507.9942350697486 337.43755165773626 507.9942350697486 356.3738455468188L507.9942350697486 356.3738455468188ZM457.29289263524504 383.1125938624216Q473.27769627309715 383.1125938624216 480.8463692935792 376.1575970327894Q488.41504231406134 369.23182287891194 488.41504231406134 356.3738455468188L488.41504231406134 356.3738455468188Q488.41504231406134 329.2552024464042 457.29289263524504 329.2552024464042L457.29289263524504 329.2552024464042L429.0930105319044 329.2552024464042L429.0930105319044 383.1125938624216L457.29289263524504 383.1125938624216ZM598.2630804761933 461.57547826394443Q577.8364301236181 461.57547826394443 561.004168888878 452.01966329213883Q544.171907654138 442.43462564457855 534.411533952049 425.2809149765361Q524.6219375742054 408.1564269842484 524.6219375742054 386.67776030450193L524.6219375742054 386.67776030450193Q524.6219375742054 365.22831630051024 534.411533952049 348.0746056324678Q544.171907654138 330.9208949644254 561.004168888878 321.3650799926198Q577.8364301236181 311.7800423450595 598.2630804761933 311.7800423450595L598.2630804761933 311.7800423450595Q618.8650668832971 311.7800423450595 635.6973281180371 321.3650799926198Q652.5295893527773 330.9208949644254 662.2315177033566 347.9577149294488Q671.9042233781812 365.02375757022696 671.9042233781812 386.67776030450193L671.9042233781812 386.67776030450193Q671.9042233781812 408.36098571453175 662.2315177033566 425.3978056795551Q652.5295893527773 442.43462564457855 635.6973281180371 452.01966329213883Q618.8650668832971 461.57547826394443 598.2630804761933 461.57547826394443L598.2630804761933 461.57547826394443ZM598.2630804761933 444.9769984352424Q613.6049852474408 444.9769984352424 625.9369544159483 437.8174428753269Q638.239700908701 430.6578873154114 645.2823657655975 417.39079252275167Q652.325030622494 404.1529204058467 652.325030622494 386.67776030450193L652.325030622494 386.67776030450193Q652.325030622494 368.9980414728739 645.2823657655975 355.8478373832332Q638.239700908701 342.6976332935925 626.0246224432126 335.56730040943177Q613.8387666534788 328.4077448495163 598.2630804761933 328.4077448495163L598.2630804761933 328.4077448495163Q582.6873942989077 328.4077448495163 570.4723158334193 335.56730040943177Q558.2864600436856 342.6976332935925 551.2437951867892 355.8478373832332Q544.171907654138 368.9980414728739 544.171907654138 386.67776030450193L544.171907654138 386.67776030450193Q544.171907654138 404.1529204058467 551.2437951867892 417.39079252275167Q558.2864600436856 430.6578873154114 570.5892065364384 437.8174428753269Q582.8919530291911 444.9769984352424 598.2630804761933 444.9769984352424L598.2630804761933 444.9769984352424ZM688.0935857463168 313.4749575388354L787.4214606367361 313.4749575388354L787.4214606367361 329.0214210403662L747.4448402042284 329.0214210403662L747.4448402042284 460.1143444762066L728.2747649091078 460.1143444762066L728.2747649091078 329.0214210403662L688.0935857463168 329.0214210403662L688.0935857463168 313.4749575388354ZM857.4682144208889 461.57547826394443Q842.9445445707746 461.57547826394443 831.4892556749098 456.4322873311072Q820.033966779045 451.2890963982699 813.4880874099795 442.11317621127625Q806.9714307166686 432.9664787000372 806.7668719863854 420.9851816405868L806.7668719863854 420.9851816405868L827.1642996632058 420.9851816405868Q828.216315990377 431.30078618201605 835.6973209835949 438.3434510389125Q843.1783259768127 445.386115895809 857.4682144208889 445.386115895809L857.4682144208889 445.386115895809Q871.1444266741153 445.386115895809 879.0345491278997 438.5480097691958Q886.9246715816842 431.7099036425827 886.9246715816842 420.9851816405868L886.9246715816842 420.9851816405868Q886.9246715816842 412.5690510232168 882.3074888124324 407.3089693873605Q877.6610833674262 402.0488877515042 870.7353092135487 399.30195623055704Q863.7803123839166 396.5842473853646 852.0035740547494 393.42819840385084L852.0035740547494 393.42819840385084Q837.4799042046351 389.6292505557324 828.7423241539627 385.830302707614Q820.033966779045 382.06057753525033 813.8095368432818 373.9658963511826Q807.6143295832733 365.84199249136014 807.6143295832733 352.16578023813383L807.6143295832733 352.16578023813383Q807.6143295832733 340.18448317868337 813.7218688160175 330.9208949644254Q819.800185373007 321.6573067501674 830.8463568083051 316.63100652034916Q841.8925282436034 311.57548361477615 856.2116393634344 311.57548361477615L856.2116393634344 311.57548361477615Q876.8428484462929 311.57548361477615 889.9930525359335 321.89108815620546Q903.1432566255743 332.17747002187997 904.8089491435954 349.2435126626581L904.8089491435954 349.2435126626581L883.7686226001704 349.2435126626581Q882.7166062729991 340.82738204528806 874.9433745222337 334.39839337924144Q867.1409200957135 327.96940471319493 854.3121654393751 327.96940471319493L854.3121654393751 327.96940471319493Q842.3308683799247 327.96940471319493 834.7621953594427 334.19383464895816Q827.1642996632058 340.3890419089667 827.1642996632058 351.55210404728393L827.1642996632058 351.55210404728393Q827.1642996632058 359.5298945283326 831.6938144051932 364.5854174339056Q836.2233291471805 369.64094033947856 842.8568765435103 372.2709811574067Q849.4904239398403 374.90102197533486 861.4717209992906 378.2616296871319L861.4717209992906 378.2616296871319Q875.9953908494049 382.2651362655336 884.8206389273415 386.1517521409163Q893.675109681033 390.03836801629905 899.9872076440605 398.1622718761215Q906.2993056070881 406.25695306018923 906.2993056070881 420.1377240436989L906.2993056070881 420.1377240436989Q906.2993056070881 430.8624460456947 900.6008838349105 440.330592990236Q894.9316847384875 449.79873993477736 883.7686226001704 455.70172043723824Q872.6347831376078 461.57547826394443 857.4682144208889 461.57547826394443L857.4682144208889 461.57547826394443Z " fill="#e7d045" transform="matrix(0.6323142206480232,0,0,0.6323142206480232,-53.45160764744557,55.56286227701153)"/><path d="M894.9901411854722 461.57547826394443Q880.4664713353579 461.57547826394443 868.9819597637384 456.4322873311072Q857.5266708678736 451.2890963982699 851.0100141745627 442.11317621127625Q844.4933574812519 432.9664787000372 844.2595760752138 420.9851816405868L844.2595760752138 420.9851816405868L864.686226427789 420.9851816405868Q865.7382427549603 431.30078618201605 873.1900250724234 438.3434510389125Q880.6710300656412 445.386115895809 894.9901411854722 445.386115895809L894.9901411854722 445.386115895809Q908.6663534386985 445.386115895809 916.5564758924829 438.5480097691958Q924.4465983462674 431.7099036425827 924.4465983462674 420.9851816405868L924.4465983462674 420.9851816405868Q924.4465983462674 412.5690510232168 919.800192901261 407.3089693873605Q915.1830101320094 402.0488877515042 908.2280133023771 399.30195623055704Q901.3022391484997 396.5842473853646 889.4962781435779 393.42819840385084L889.4962781435779 393.42819840385084Q875.0018309692183 389.6292505557324 866.2642509185459 385.830302707614Q857.5266708678736 382.06057753525033 851.3314636078651 373.9658963511826Q845.1070336721018 365.84199249136014 845.1070336721018 352.16578023813383L845.1070336721018 352.16578023813383Q845.1070336721018 340.18448317868337 851.214572904846 330.9208949644254Q857.3221121375902 321.6573067501674 868.3682835728885 316.63100652034916Q879.4144550081867 311.57548361477615 893.704343452263 311.57548361477615L893.704343452263 311.57548361477615Q914.3355525351215 311.57548361477615 927.4857566247621 321.89108815620546Q940.6359607144028 332.17747002187997 942.3308759081788 349.2435126626581L942.3308759081788 349.2435126626581L921.2905493647536 349.2435126626581Q920.2385330375823 340.82738204528806 912.4360786110622 334.39839337924144Q904.6628468602968 327.96940471319493 891.8340922039584 327.96940471319493L891.8340922039584 327.96940471319493Q879.8235724687532 327.96940471319493 872.2548994482712 334.19383464895816Q864.686226427789 340.3890419089667 864.686226427789 351.55210404728393L864.686226427789 351.55210404728393Q864.686226427789 359.5298945283326 869.2157411697765 364.5854174339056Q873.716033236009 369.64094033947856 880.3495806323389 372.2709811574067Q886.9831280286687 374.90102197533486 898.9644250881192 378.2616296871319L898.9644250881192 378.2616296871319Q913.4880949382334 382.2651362655336 922.3425656919248 386.1517521409163Q931.1678137698616 390.03836801629905 937.479911732889 398.1622718761215Q943.7920096959166 406.25695306018923 943.7920096959166 420.1377240436989L943.7920096959166 420.1377240436989Q943.7920096959166 430.8624460456947 938.1228105994937 440.330592990236Q932.4243888273161 449.79873993477736 921.2905493647536 455.70172043723824Q910.1274872264364 461.57547826394443 894.9901411854722 461.57547826394443L894.9901411854722 461.57547826394443ZM1070.0339689564673 356.3738455468188Q1070.0339689564673 374.6964632450515 1057.5266637334312 386.794651007521Q1044.9901358346406 398.8928387699904 1019.3326265219638 398.8928387699904L1019.3326265219638 398.8928387699904L991.1327444186231 398.8928387699904L991.1327444186231 460.1143444762066L971.9918917992572 460.1143444762066L971.9918917992572 313.4749575388354L1019.3326265219638 313.4749575388354Q1044.1426782377525 313.4749575388354 1057.08832359711 325.4562545982858Q1070.0339689564673 337.43755165773626 1070.0339689564673 356.3738455468188L1070.0339689564673 356.3738455468188ZM1019.3326265219638 383.1125938624216Q1035.317430159816 383.1125938624216 1042.886103180298 376.1575970327894Q1050.45477620078 369.23182287891194 1050.45477620078 356.3738455468188L1050.45477620078 356.3738455468188Q1050.45477620078 329.2552024464042 1019.3326265219638 329.2552024464042L1019.3326265219638 329.2552024464042L991.1327444186231 329.2552024464042L991.1327444186231 383.1125938624216L1019.3326265219638 383.1125938624216ZM1160.3028143629122 461.57547826394443Q1139.8761640103369 461.57547826394443 1123.0439027755967 452.01966329213883Q1106.2116415408566 442.43462564457855 1096.4512678387678 425.2809149765361Q1086.661671460924 408.1564269842484 1086.661671460924 386.67776030450193L1086.661671460924 386.67776030450193Q1086.661671460924 365.22831630051024 1096.4512678387678 348.0746056324678Q1106.2116415408566 330.9208949644254 1123.0439027755967 321.3650799926198Q1139.8761640103369 311.7800423450595 1160.3028143629122 311.7800423450595L1160.3028143629122 311.7800423450595Q1180.9048007700158 311.7800423450595 1197.737062004756 321.3650799926198Q1214.569323239496 330.9208949644254 1224.2712515900753 347.9577149294488Q1233.9439572648998 365.02375757022696 1233.9439572648998 386.67776030450193L1233.9439572648998 386.67776030450193Q1233.9439572648998 408.36098571453175 1224.2712515900753 425.3978056795551Q1214.569323239496 442.43462564457855 1197.737062004756 452.01966329213883Q1180.9048007700158 461.57547826394443 1160.3028143629122 461.57547826394443L1160.3028143629122 461.57547826394443ZM1160.3028143629122 444.9769984352424Q1175.6447191341595 444.9769984352424 1187.976688302667 437.8174428753269Q1200.2794347954198 430.6578873154114 1207.3220996523164 417.39079252275167Q1214.3647645092128 404.1529204058467 1214.3647645092128 386.67776030450193L1214.3647645092128 386.67776030450193Q1214.3647645092128 368.9980414728739 1207.3220996523164 355.8478373832332Q1200.2794347954198 342.6976332935925 1188.0643563299313 335.56730040943177Q1175.8785005401976 328.4077448495163 1160.3028143629122 328.4077448495163L1160.3028143629122 328.4077448495163Q1144.7271281856265 328.4077448495163 1132.512049720138 335.56730040943177Q1120.3261939304043 342.6976332935925 1113.283529073508 355.8478373832332Q1106.2116415408566 368.9980414728739 1106.2116415408566 386.67776030450193L1106.2116415408566 386.67776030450193Q1106.2116415408566 404.1529204058467 1113.283529073508 417.39079252275167Q1120.3261939304043 430.6578873154114 1132.628940423157 437.8174428753269Q1144.9316869159097 444.9769984352424 1160.3028143629122 444.9769984352424L1160.3028143629122 444.9769984352424ZM1250.1333196330354 313.4749575388354L1349.4611945234549 313.4749575388354L1349.4611945234549 329.0214210403662L1309.4845740909473 329.0214210403662L1309.4845740909473 460.1143444762066L1290.3144987958265 460.1143444762066L1290.3144987958265 329.0214210403662L1250.1333196330354 329.0214210403662L1250.1333196330354 313.4749575388354ZM1419.5079483076076 461.57547826394443Q1404.9842784574935 461.57547826394443 1393.5289895616286 456.4322873311072Q1382.0737006657637 451.2890963982699 1375.5278212966982 442.11317621127625Q1369.0111646033874 432.9664787000372 1368.8066058731042 420.9851816405868L1368.8066058731042 420.9851816405868L1389.2040335499246 420.9851816405868Q1390.2560498770958 431.30078618201605 1397.7370548703136 438.3434510389125Q1405.2180598635314 445.386115895809 1419.5079483076076 445.386115895809L1419.5079483076076 445.386115895809Q1433.184160560834 445.386115895809 1441.0742830146185 438.5480097691958Q1448.964405468403 431.7099036425827 1448.964405468403 420.9851816405868L1448.964405468403 420.9851816405868Q1448.964405468403 412.5690510232168 1444.3472226991512 407.3089693873605Q1439.700817254145 402.0488877515042 1432.7750431002673 399.30195623055704Q1425.8200462706354 396.5842473853646 1414.0433079414681 393.42819840385084L1414.0433079414681 393.42819840385084Q1399.519638091354 389.6292505557324 1390.7820580406815 385.830302707614Q1382.0737006657637 382.06057753525033 1375.8492707300006 373.9658963511826Q1369.654063469992 365.84199249136014 1369.654063469992 352.16578023813383L1369.654063469992 352.16578023813383Q1369.654063469992 340.18448317868337 1375.7616027027361 330.9208949644254Q1381.8399192597258 321.6573067501674 1392.886090695024 316.63100652034916Q1403.9322621303222 311.57548361477615 1418.2513732501532 311.57548361477615L1418.2513732501532 311.57548361477615Q1438.8825823330117 311.57548361477615 1452.0327864226524 321.89108815620546Q1465.1829905122931 332.17747002187997 1466.848683030314 349.2435126626581L1466.848683030314 349.2435126626581L1445.8083564868891 349.2435126626581Q1444.7563401597179 340.82738204528806 1436.9831084089524 334.39839337924144Q1429.1806539824322 327.96940471319493 1416.3518993260939 327.96940471319493L1416.3518993260939 327.96940471319493Q1404.3706022666433 327.96940471319493 1396.8019292461613 334.19383464895816Q1389.2040335499246 340.3890419089667 1389.2040335499246 351.55210404728393L1389.2040335499246 351.55210404728393Q1389.2040335499246 359.5298945283326 1393.733548291912 364.5854174339056Q1398.2630630338992 369.64094033947856 1404.896610430229 372.2709811574067Q1411.530157826559 374.90102197533486 1423.5114548860092 378.2616296871319L1423.5114548860092 378.2616296871319Q1438.0351247361236 382.2651362655336 1446.8603728140602 386.1517521409163Q1455.7148435677518 390.03836801629905 1462.0269415307794 398.1622718761215Q1468.339039493807 406.25695306018923 1468.339039493807 420.1377240436989L1468.339039493807 420.1377240436989Q1468.339039493807 430.8624460456947 1462.6406177216293 440.330592990236Q1456.9714186252063 449.79873993477736 1445.8083564868891 455.70172043723824Q1434.6745170243266 461.57547826394443 1419.5079483076076 461.57547826394443L1419.5079483076076 461.57547826394443Z " fill="#a04ef6" transform="matrix(0.6323142206480232,0,0,0.6323142206480232,-53.45160764744557,55.56286227701153)"/></g></svg>